<svg id="visual" viewBox="0 0 900 600" width="900" height="600" xmlns="http://www.w3.org/2000/svg" xmlns:xlink="http://www.w3.org/1999/xlink" version="1.1"><rect x="0" y="0" width="900" height="600" fill="#000000"></rect><path d="M0 393L21.5 387.8C43 382.7 86 372.3 128.8 372.7C171.7 373 214.3 384 257.2 384.7C300 385.3 343 375.7 385.8 371.7C428.7 367.7 471.3 369.3 514.2 373.7C557 378 600 385 642.8 384.7C685.7 384.3 728.3 376.7 771.2 382.2C814 387.7 857 406.3 878.5 415.7L900 425L900 601L878.5 601C857 601 814 601 771.2 601C728.3 601 685.7 601 642.8 601C600 601 557 601 514.2 601C471.3 601 428.7 601 385.8 601C343 601 300 601 257.2 601C214.3 601 171.7 601 128.8 601C86 601 43 601 21.5 601L0 601Z" fill="#131313"></path><path d="M0 443L21.5 436C43 429 86 415 128.8 409.3C171.7 403.7 214.3 406.3 257.2 412.3C300 418.3 343 427.7 385.8 432.7C428.7 437.7 471.3 438.3 514.2 437.5C557 436.7 600 434.3 642.8 428.8C685.7 423.3 728.3 414.7 771.2 421.8C814 429 857 452 878.5 463.5L900 475L900 601L878.5 601C857 601 814 601 771.2 601C728.3 601 685.7 601 642.8 601C600 601 557 601 514.2 601C471.3 601 428.7 601 385.8 601C343 601 300 601 257.2 601C214.3 601 171.7 601 128.8 601C86 601 43 601 21.5 601L0 601Z" fill="#1d1d1d"></path><path d="M0 480L21.5 473.8C43 467.7 86 455.3 128.8 454C171.7 452.7 214.3 462.3 257.2 467C300 471.7 343 471.3 385.8 471.2C428.7 471 471.3 471 514.2 465.8C557 460.7 600 450.3 642.8 449.7C685.7 449 728.3 458 771.2 457.5C814 457 857 447 878.5 442L900 437L900 601L878.5 601C857 601 814 601 771.2 601C728.3 601 685.7 601 642.8 601C600 601 557 601 514.2 601C471.3 601 428.7 601 385.8 601C343 601 300 601 257.2 601C214.3 601 171.7 601 128.8 601C86 601 43 601 21.5 601L0 601Z" fill="#262626"></path><path d="M0 533L21.5 525.3C43 517.7 86 502.3 128.8 494.2C171.7 486 214.3 485 257.2 485.2C300 485.3 343 486.7 385.8 488.5C428.7 490.3 471.3 492.7 514.2 491.7C557 490.7 600 486.3 642.8 490.7C685.7 495 728.3 508 771.2 515.8C814 523.7 857 526.3 878.5 527.7L900 529L900 601L878.5 601C857 601 814 601 771.2 601C728.3 601 685.7 601 642.8 601C600 601 557 601 514.2 601C471.3 601 428.7 601 385.8 601C343 601 300 601 257.2 601C214.3 601 171.7 601 128.8 601C86 601 43 601 21.5 601L0 601Z" fill="#303030"></path><path d="M0 532L21.5 536.3C43 540.7 86 549.3 128.8 555C171.7 560.7 214.3 563.3 257.2 564C300 564.7 343 563.3 385.8 557.3C428.7 551.3 471.3 540.7 514.2 536.7C557 532.7 600 535.3 642.8 538.7C685.7 542 728.3 546 771.2 546.3C814 546.7 857 543.3 878.5 541.7L900 540L900 601L878.5 601C857 601 814 601 771.2 601C728.3 601 685.7 601 642.8 601C600 601 557 601 514.2 601C471.3 601 428.7 601 385.8 601C343 601 300 601 257.2 601C214.3 601 171.7 601 128.8 601C86 601 43 601 21.5 601L0 601Z" fill="#3a3a3a"></path></svg>