<svg id="visual" viewBox="0 0 900 600" width="900" height="600" xmlns="http://www.w3.org/2000/svg" xmlns:xlink="http://www.w3.org/1999/xlink" version="1.1"><g stroke-width="1" stroke-linejoin="bevel"><path d="M491 304L483 374L593 326Z" fill="#ebebeb" stroke="#ebebeb"></path><path d="M483 374L608 424L593 326Z" fill="#ffffff" stroke="#ffffff"></path><path d="M491 304L395 377L483 374Z" fill="#e1e1e1" stroke="#e1e1e1"></path><path d="M514 524L562 522L608 424Z" fill="#eeeeee" stroke="#eeeeee"></path><path d="M603 203L468 207L491 304Z" fill="#eeeeee" stroke="#eeeeee"></path><path d="M491 304L374 275L395 377Z" fill="#fcfcfc" stroke="#fcfcfc"></path><path d="M715 286L603 203L593 326Z" fill="#eeeeee" stroke="#eeeeee"></path><path d="M593 326L603 203L491 304Z" fill="#f5f5f5" stroke="#f5f5f5"></path><path d="M468 207L374 275L491 304Z" fill="#eeeeee" stroke="#eeeeee"></path><path d="M514 524L608 424L483 374Z" fill="#e1e1e1" stroke="#e1e1e1"></path><path d="M323 406L400 462L395 377Z" fill="#f8f8f8" stroke="#f8f8f8"></path><path d="M395 377L400 462L483 374Z" fill="#eeeeee" stroke="#eeeeee"></path><path d="M400 462L514 524L483 374Z" fill="#f5f5f5" stroke="#f5f5f5"></path><path d="M722 411L593 326L608 424Z" fill="#e1e1e1" stroke="#e1e1e1"></path><path d="M722 411L715 286L593 326Z" fill="#f1f1f1" stroke="#f1f1f1"></path><path d="M727 529L722 411L608 424Z" fill="#eeeeee" stroke="#eeeeee"></path><path d="M374 275L323 406L395 377Z" fill="#e8e8e8" stroke="#e8e8e8"></path><path d="M368 160L328 264L374 275Z" fill="#e8e8e8" stroke="#e8e8e8"></path><path d="M374 275L328 264L323 406Z" fill="#f5f5f5" stroke="#f5f5f5"></path><path d="M707 160L638 139L603 203Z" fill="#e4e4e4" stroke="#e4e4e4"></path><path d="M603 203L466 110L468 207Z" fill="#ebebeb" stroke="#ebebeb"></path><path d="M638 139L466 110L603 203Z" fill="#ebebeb" stroke="#ebebeb"></path><path d="M468 207L368 160L374 275Z" fill="#ffffff" stroke="#ffffff"></path><path d="M466 110L368 160L468 207Z" fill="#f5f5f5" stroke="#f5f5f5"></path><path d="M715 286L707 160L603 203Z" fill="#f1f1f1" stroke="#f1f1f1"></path><path d="M722 411L784 300L715 286Z" fill="#e8e8e8" stroke="#e8e8e8"></path><path d="M715 286L819 195L707 160Z" fill="#f8f8f8" stroke="#f8f8f8"></path><path d="M514 524L577 600L562 522Z" fill="#f8f8f8" stroke="#f8f8f8"></path><path d="M562 522L727 529L608 424Z" fill="#e4e4e4" stroke="#e4e4e4"></path><path d="M478 600L577 600L514 524Z" fill="#f8f8f8" stroke="#f8f8f8"></path><path d="M478 600L514 524L414 600Z" fill="#dedede" stroke="#dedede"></path><path d="M414 600L514 524L400 462Z" fill="#f1f1f1" stroke="#f1f1f1"></path><path d="M577 600L727 529L562 522Z" fill="#f8f8f8" stroke="#f8f8f8"></path><path d="M722 411L800 378L784 300Z" fill="#ffffff" stroke="#ffffff"></path><path d="M806 463L800 378L722 411Z" fill="#e1e1e1" stroke="#e1e1e1"></path><path d="M295 600L414 600L400 462Z" fill="#ebebeb" stroke="#ebebeb"></path><path d="M176 382L274 464L323 406Z" fill="#eeeeee" stroke="#eeeeee"></path><path d="M323 406L274 464L400 462Z" fill="#eeeeee" stroke="#eeeeee"></path><path d="M364 61L338 132L368 160Z" fill="#eeeeee" stroke="#eeeeee"></path><path d="M368 160L285 166L328 264Z" fill="#ebebeb" stroke="#ebebeb"></path><path d="M328 264L201 297L323 406Z" fill="#e8e8e8" stroke="#e8e8e8"></path><path d="M727 529L806 463L722 411Z" fill="#e8e8e8" stroke="#e8e8e8"></path><path d="M338 132L285 166L368 160Z" fill="#f5f5f5" stroke="#f5f5f5"></path><path d="M812 66L687 71L707 160Z" fill="#e1e1e1" stroke="#e1e1e1"></path><path d="M707 160L687 71L638 139Z" fill="#dedede" stroke="#dedede"></path><path d="M598 0L487 0L466 110Z" fill="#e8e8e8" stroke="#e8e8e8"></path><path d="M466 110L364 61L368 160Z" fill="#e8e8e8" stroke="#e8e8e8"></path><path d="M577 600L725 600L727 529Z" fill="#ffffff" stroke="#ffffff"></path><path d="M727 529L820 600L806 463Z" fill="#e4e4e4" stroke="#e4e4e4"></path><path d="M784 300L819 195L715 286Z" fill="#e4e4e4" stroke="#e4e4e4"></path><path d="M900 318L819 195L784 300Z" fill="#e4e4e4" stroke="#e4e4e4"></path><path d="M900 318L784 300L800 378Z" fill="#ffffff" stroke="#ffffff"></path><path d="M398 0L364 61L466 110Z" fill="#dedede" stroke="#dedede"></path><path d="M338 132L198 95L285 166Z" fill="#e1e1e1" stroke="#e1e1e1"></path><path d="M285 166L201 297L328 264Z" fill="#f8f8f8" stroke="#f8f8f8"></path><path d="M598 0L466 110L638 139Z" fill="#e8e8e8" stroke="#e8e8e8"></path><path d="M687 71L598 0L638 139Z" fill="#fcfcfc" stroke="#fcfcfc"></path><path d="M274 464L295 600L400 462Z" fill="#ebebeb" stroke="#ebebeb"></path><path d="M239 600L295 600L274 464Z" fill="#e1e1e1" stroke="#e1e1e1"></path><path d="M201 297L176 382L323 406Z" fill="#f8f8f8" stroke="#f8f8f8"></path><path d="M900 508L900 370L806 463Z" fill="#e1e1e1" stroke="#e1e1e1"></path><path d="M806 463L900 370L800 378Z" fill="#ebebeb" stroke="#ebebeb"></path><path d="M900 370L900 318L800 378Z" fill="#f1f1f1" stroke="#f1f1f1"></path><path d="M487 0L398 0L466 110Z" fill="#e4e4e4" stroke="#e4e4e4"></path><path d="M198 95L181 179L285 166Z" fill="#f1f1f1" stroke="#f1f1f1"></path><path d="M725 600L820 600L727 529Z" fill="#f5f5f5" stroke="#f5f5f5"></path><path d="M285 166L181 179L201 297Z" fill="#f8f8f8" stroke="#f8f8f8"></path><path d="M201 297L122 308L176 382Z" fill="#ffffff" stroke="#ffffff"></path><path d="M319 0L338 132L364 61Z" fill="#ffffff" stroke="#ffffff"></path><path d="M163 483L239 600L274 464Z" fill="#eeeeee" stroke="#eeeeee"></path><path d="M819 195L812 66L707 160Z" fill="#eeeeee" stroke="#eeeeee"></path><path d="M687 71L733 0L598 0Z" fill="#e1e1e1" stroke="#e1e1e1"></path><path d="M900 135L812 66L819 195Z" fill="#dedede" stroke="#dedede"></path><path d="M812 66L733 0L687 71Z" fill="#fcfcfc" stroke="#fcfcfc"></path><path d="M77 436L163 483L176 382Z" fill="#e1e1e1" stroke="#e1e1e1"></path><path d="M176 382L163 483L274 464Z" fill="#e4e4e4" stroke="#e4e4e4"></path><path d="M820 600L900 508L806 463Z" fill="#f8f8f8" stroke="#f8f8f8"></path><path d="M900 318L900 169L819 195Z" fill="#eeeeee" stroke="#eeeeee"></path><path d="M398 0L319 0L364 61Z" fill="#eeeeee" stroke="#eeeeee"></path><path d="M131 191L122 308L201 297Z" fill="#dedede" stroke="#dedede"></path><path d="M239 0L198 95L338 132Z" fill="#eeeeee" stroke="#eeeeee"></path><path d="M181 179L131 191L201 297Z" fill="#dedede" stroke="#dedede"></path><path d="M900 169L900 135L819 195Z" fill="#dedede" stroke="#dedede"></path><path d="M812 66L778 0L733 0Z" fill="#ebebeb" stroke="#ebebeb"></path><path d="M900 0L778 0L812 66Z" fill="#f8f8f8" stroke="#f8f8f8"></path><path d="M102 100L131 191L181 179Z" fill="#e8e8e8" stroke="#e8e8e8"></path><path d="M820 600L900 600L900 508Z" fill="#f5f5f5" stroke="#f5f5f5"></path><path d="M319 0L239 0L338 132Z" fill="#fcfcfc" stroke="#fcfcfc"></path><path d="M198 95L102 100L181 179Z" fill="#ebebeb" stroke="#ebebeb"></path><path d="M122 308L77 436L176 382Z" fill="#f1f1f1" stroke="#f1f1f1"></path><path d="M163 483L80 600L239 600Z" fill="#eeeeee" stroke="#eeeeee"></path><path d="M0 390L77 436L122 308Z" fill="#f5f5f5" stroke="#f5f5f5"></path><path d="M77 436L71 521L163 483Z" fill="#eeeeee" stroke="#eeeeee"></path><path d="M93 0L102 100L198 95Z" fill="#ebebeb" stroke="#ebebeb"></path><path d="M0 261L0 390L122 308Z" fill="#e1e1e1" stroke="#e1e1e1"></path><path d="M900 135L900 0L812 66Z" fill="#ebebeb" stroke="#ebebeb"></path><path d="M71 521L80 600L163 483Z" fill="#dedede" stroke="#dedede"></path><path d="M77 436L0 465L71 521Z" fill="#f5f5f5" stroke="#f5f5f5"></path><path d="M71 521L0 600L80 600Z" fill="#ebebeb" stroke="#ebebeb"></path><path d="M0 261L122 308L131 191Z" fill="#fcfcfc" stroke="#fcfcfc"></path><path d="M0 187L0 261L131 191Z" fill="#fcfcfc" stroke="#fcfcfc"></path><path d="M0 390L0 465L77 436Z" fill="#dedede" stroke="#dedede"></path><path d="M102 100L0 187L131 191Z" fill="#ffffff" stroke="#ffffff"></path><path d="M239 0L93 0L198 95Z" fill="#f1f1f1" stroke="#f1f1f1"></path><path d="M102 100L0 123L0 187Z" fill="#f8f8f8" stroke="#f8f8f8"></path><path d="M0 0L0 123L102 100Z" fill="#e4e4e4" stroke="#e4e4e4"></path><path d="M0 465L0 600L71 521Z" fill="#f5f5f5" stroke="#f5f5f5"></path><path d="M93 0L0 0L102 100Z" fill="#ffffff" stroke="#ffffff"></path></g></svg>